<?xml version="1.0" encoding="utf-8"?>
<!-- Generator: Adobe Illustrator 17.0.0, SVG Export Plug-In . SVG Version: 6.00 Build 0)  -->
<!DOCTYPE svg PUBLIC "-//W3C//DTD SVG 1.1//EN" "http://www.w3.org/Graphics/SVG/1.1/DTD/svg11.dtd">
<svg version="1.1" id="Layer_1" xmlns="http://www.w3.org/2000/svg" xmlns:xlink="http://www.w3.org/1999/xlink" x="0px" y="0px"
	 width="750px" height="500px" viewBox="0 0 750 500" enable-background="new 0 0 750 500" xml:space="preserve">
<g id="BACKGROUND" display="none">
	<rect display="inline" fill="#B7D2FF" width="750" height="500"/>
</g>
<g id="OBJECTS">
	<g>
		<ellipse fill="#B7D2FF" cx="367.285" cy="253.505" rx="176.544" ry="170.954"/>
		<g>
			<g>
				<g>
					
						<line fill="none" stroke="#FFFFFF" stroke-width="2.1317" stroke-miterlimit="10" x1="427.985" y1="106.478" x2="427.985" y2="112.885"/>
					
						<line fill="none" stroke="#FFFFFF" stroke-width="2.1317" stroke-miterlimit="10" x1="427.985" y1="119.725" x2="427.985" y2="126.132"/>
				</g>
				<g>
					
						<line fill="none" stroke="#FFFFFF" stroke-width="2.1317" stroke-miterlimit="10" x1="438.133" y1="116.305" x2="431.516" y2="116.305"/>
					
						<line fill="none" stroke="#FFFFFF" stroke-width="2.1317" stroke-miterlimit="10" x1="424.453" y1="116.305" x2="417.836" y2="116.305"/>
				</g>
			</g>
			<g>
				<g>
					
						<line fill="none" stroke="#FFFFFF" stroke-width="2.1317" stroke-miterlimit="10" x1="240.355" y1="239.335" x2="240.355" y2="245.743"/>
					
						<line fill="none" stroke="#FFFFFF" stroke-width="2.1317" stroke-miterlimit="10" x1="240.355" y1="252.582" x2="240.355" y2="258.99"/>
				</g>
				<g>
					
						<line fill="none" stroke="#FFFFFF" stroke-width="2.1317" stroke-miterlimit="10" x1="250.504" y1="249.163" x2="243.886" y2="249.163"/>
					
						<line fill="none" stroke="#FFFFFF" stroke-width="2.1317" stroke-miterlimit="10" x1="236.823" y1="249.163" x2="230.206" y2="249.163"/>
				</g>
			</g>
			<g>
				<g>
					
						<line fill="none" stroke="#FFFFFF" stroke-width="2.1317" stroke-miterlimit="10" x1="495.095" y1="174.671" x2="495.095" y2="178.241"/>
					
						<line fill="none" stroke="#FFFFFF" stroke-width="2.1317" stroke-miterlimit="10" x1="495.095" y1="182.051" x2="495.095" y2="185.62"/>
				</g>
				<g>
					
						<line fill="none" stroke="#FFFFFF" stroke-width="2.1317" stroke-miterlimit="10" x1="500.749" y1="180.146" x2="497.063" y2="180.146"/>
					
						<line fill="none" stroke="#FFFFFF" stroke-width="2.1317" stroke-miterlimit="10" x1="493.128" y1="180.146" x2="489.442" y2="180.146"/>
				</g>
			</g>
			<path fill="none" stroke="#FFFFFF" stroke-width="2.1317" stroke-miterlimit="10" d="M356.695,330.224
				c-2.917,2.48-7.358,2.201-9.919-0.624c-2.561-2.824-2.273-7.125,0.644-9.605"/>
			<path fill="none" stroke="#FFFFFF" stroke-width="2.1317" stroke-miterlimit="10" d="M249.754,178.158
				c-1.861-3.299-0.608-7.434,2.798-9.236c3.407-1.802,7.677-0.589,9.538,2.71"/>
			
				<line fill="none" stroke="#FFFFFF" stroke-width="2.1317" stroke-miterlimit="10" x1="499.591" y1="315.687" x2="519.26" y2="315.687"/>
			
				<line fill="none" stroke="#FFFFFF" stroke-width="2.1317" stroke-miterlimit="10" x1="467.796" y1="363.603" x2="477.631" y2="363.603"/>
			
				<line fill="none" stroke="#FFFFFF" stroke-width="2.1317" stroke-miterlimit="10" x1="240.923" y1="325.956" x2="250.758" y2="325.956"/>
			
				<line fill="none" stroke="#FFFFFF" stroke-width="2.1317" stroke-miterlimit="10" x1="384.16" y1="135.584" x2="393.995" y2="135.584"/>
			
				<line fill="none" stroke="#FFFFFF" stroke-width="2.1317" stroke-miterlimit="10" x1="316.943" y1="373.264" x2="326.778" y2="373.264"/>
			
				<line fill="none" stroke="#FFFFFF" stroke-width="2.1317" stroke-miterlimit="10" x1="302.785" y1="225.96" x2="345.03" y2="225.96"/>
			
				<line fill="none" stroke="#FFFFFF" stroke-width="2.1317" stroke-miterlimit="10" x1="519.26" y1="202.294" x2="529.095" y2="202.294"/>
			
				<line fill="none" stroke="#FFFFFF" stroke-width="2.1317" stroke-miterlimit="10" x1="358.346" y1="264.404" x2="368.181" y2="264.404"/>
		</g>
		<g>
			<g>
				<path fill="#FF8BDB" d="M425.469,158.342c-9.361,5.426-25.361,12.348-41.772,8.695c-13.311-7.719-49.442-25.287-49.442-25.287
					l-4.256,6.303c0,0,35.43,35.456,50.559,39.438c15.129,3.982,49.333,1.197,67.218-11.066c8.93-6.122,7.281-13.142,2.488-18.083
					L425.469,158.342L425.469,158.342z"/>
				<path fill="#FF2C9C" d="M426.215,158.342c-2.025,1.903-4.156,3.707-6.439,5.338c0.222,0.425,0.204,0.949-0.264,1.378
					c-3.369,3.089-7.505,5.201-11.843,6.719c-2.979,1.043-6.075,1.823-9.222,2.386c-12.774,3.903-26.628,4.178-39.267,0.108
					c8.022,6.382,15.987,11.8,21.377,13.218c15.129,3.982,49.333,1.197,67.218-11.066c8.93-6.122,7.281-13.142,2.488-18.083h-24.048
					V158.342z"/>
				<path fill="#FF8BDB" d="M340.16,148.576c0,0,0.253-9.331-2.428-13.792c-3.127-5.203-3.905-0.279-3.071,1.311
					c0.491,0.936,0.848,1.542,0.848,1.542c-0.356,0.257-5.23-4.809-6.323-4.282c-1.15,0.555-1.419,1.837-1.419,1.837
					s-1.101-0.343-2.224,0.843c-1.218,1.285-0.784,2.133-0.784,2.133s-1.018,0.665-1.539,1.491c-0.706,1.12,0.316,2.557,0.316,2.557
					s-0.005,0.335-0.877,1.9c-0.873,1.566,3.054,2.939,3.652,3.178c0.598,0.239,6.503,5.767,12.692,2.115L340.16,148.576z"/>
			</g>
			<g>
				<polygon fill="#9DBEF5" points="328.985,171.369 325.585,171.285 327.334,167.972 				"/>
				<polygon fill="#9DBEF5" points="326.526,123.293 323.212,123.208 324.963,125.486 				"/>
				<path fill="#9DBEF5" d="M327.324,169.915l2.493-9.153c0.159-0.583,0.087-1.203-0.203-1.737l-4.641-34.835
					c-0.81-1.496-3.096-1.246-3.541,0.387l-7.528,25.784c-0.159,0.583-0.087,1.203,0.203,1.737l9.676,18.204
					C324.593,171.799,326.88,171.549,327.324,169.915z"/>
				<path fill="#89B2F5" d="M330.757,169.999l7.528-25.784c0.159-0.583,0.087-1.203-0.203-1.737l-9.676-18.204
					c-0.81-1.496-3.096-1.246-3.541,0.387l-7.528,25.784c-0.159,0.583-0.087,1.203,0.203,1.737l9.676,18.204
					C328.026,171.882,330.312,171.632,330.757,169.999z"/>
				<path fill="#3C3250" d="M329.443,159.889l4.171-14.285c0.088-0.323,0.048-0.666-0.112-0.962l-5.361-10.085
					c-0.449-0.829-1.715-0.69-1.962,0.215l-4.171,14.285c-0.088,0.323-0.048,0.666,0.112,0.962l5.361,10.085
					C327.93,160.933,329.197,160.794,329.443,159.889z"/>
			</g>
			<ellipse fill="#9CBDEF" cx="423.356" cy="466.043" rx="93.941" ry="8.279"/>
			<g>
				<g>
					<path fill="#1D2D32" d="M510.751,455.33l-23.178,10.273c-1.692,0.75-3.652-0.425-3.656-2.228
						c-0.005-2.143,0.391-4.761,2.027-6.518c3.207-3.445,11.746-11.3,11.746-11.3l8.646-3.568c2.872,0.64,4.877,4.409,6.574,10.113
						C513.256,453.268,511.889,454.825,510.751,455.33z"/>
					<path fill="#FFFFFF" d="M485.046,467.549l28.793-12.762c0.73-0.323,1.051-1.159,0.717-1.865l0,0
						c-0.334-0.707-1.197-1.017-1.926-0.694l-28.793,12.762c-0.73,0.323-1.051,1.159-0.717,1.865l0,0
						C483.454,467.561,484.316,467.872,485.046,467.549z"/>
				</g>
				<path fill="#FFFFFF" d="M500.296,446.858c2.365,0.278,4.211-0.54,5.539-2.455c0.343-0.495,0.407-1.13,0.151-1.672l-2.87-6.071
					l-7.095,3.145l2.87,6.071C499.147,446.418,499.685,446.786,500.296,446.858z"/>
				<g>
					<polygon fill="#FFFFFF" points="505.302,455.553 496.919,450.608 497.543,449.614 506.62,454.969 					"/>
				</g>
				<g>
					<polygon fill="#FFFFFF" points="501.195,457.373 494.624,453.496 495.248,452.503 502.514,456.789 					"/>
				</g>
				<g>
					<polygon fill="#FFFFFF" points="497.088,459.194 492.328,456.385 492.952,455.392 498.407,458.609 					"/>
				</g>
			</g>
			<g>
				<g>
					<path fill="#1D2D32" d="M373.114,463.573l-24.96-5.007c-1.822-0.366-2.683-2.436-1.585-3.891
						c1.306-1.73,3.226-3.613,5.619-4.091c4.691-0.938,16.374-2.374,16.374-2.374l9.15,2.082c1.923,2.162,1.235,6.349-0.885,11.919
						C376.394,463.348,374.34,463.819,373.114,463.573z"/>
					<path fill="#FFFFFF" d="M344.928,458.685l31.008,6.22c0.786,0.158,1.555-0.331,1.718-1.092l0,0
						c0.163-0.761-0.342-1.506-1.128-1.664l-31.008-6.22c-0.786-0.158-1.555,0.331-1.718,1.093l0,0
						C343.637,457.783,344.142,458.527,344.928,458.685z"/>
				</g>
				<path fill="#FFFFFF" d="M369.867,450.752c1.736,1.58,3.724,1.979,5.965,1.197c0.579-0.202,1.019-0.677,1.144-1.261l1.399-6.538
					l-7.641-1.533l-1.399,6.538C369.21,449.738,369.418,450.343,369.867,450.752z"/>
				<g>
					<polygon fill="#FFFFFF" points="368.586,460.629 364.853,451.838 365.964,451.395 370.005,460.914 					"/>
				</g>
				<g>
					<polygon fill="#FFFFFF" points="364.164,459.742 361.237,452.85 362.348,452.407 365.583,460.027 					"/>
				</g>
				<g>
					<polygon fill="#FFFFFF" points="359.741,458.855 357.621,453.862 358.732,453.419 361.16,459.14 					"/>
				</g>
			</g>
			<path fill="#FF4619" d="M492.887,441.725c-25.014-31.986-46.662-72.143-46.662-72.143c5.261-6.256,25.132-7.918,25.132-7.918
				c16.978,8.273,20.488,42.754,34.244,74.426C502.171,439.041,497.847,440.806,492.887,441.725z"/>
			<path fill="#FF4619" d="M471.357,361.664c0,0-19.214-65.486-22.484-81.688s-7.875-24.015-7.875-24.015l-40.268-0.292
				c0,0,0.155,25.673,6.776,38.933l38.72,74.98L471.357,361.664z"/>
			<path fill="#FA2D14" d="M449.259,290.044c-2.936,4.842-5.835,9.707-8.478,14.706c-6.684,12.639-12.73,22.862-12.851,37.164
				c7.668,13.134,18.296,27.668,18.296,27.668s2.318-17.311,2.215-25.288C448.377,339.458,449.33,307.124,449.259,290.044z"/>
			<g>
				<path fill="#FF4619" d="M381.396,446.223c14.071-31.139,24.602-43.627,31.718-79.053c0,0-16.8-19.606-25.105-18.958
					c0,0-12.13,53.344-19.613,92.686C371.976,444.123,376.335,445.847,381.396,446.223z"/>
				<path fill="#FF4619" d="M413.113,367.171c0,0,33.155-56.344,41.21-70.893c8.056-14.549,1.869-36.855,1.869-36.855l-50.111-1.859
					l-18.073,90.649L413.113,367.171z"/>
				<path fill="#FA2D14" d="M445.7,280.995c0,0-4.097,6.575,2.767,14.645L445.7,280.995z"/>
				<path fill="none" stroke="#FA2D14" stroke-width="1.0658" stroke-miterlimit="10" d="M446.408,273.04
					c0,0-14.982,14.825-0.705,33.751"/>
				<path fill="none" stroke="#FA2D14" stroke-width="1.0658" stroke-miterlimit="10" d="M442.398,301.342l-25.873,45.364
					c-7.119,12.482-12.964,25.605-17.453,39.185l-16.455,49.781"/>
			</g>
			<path opacity="0.1" enable-background="new    " d="M401.241,266.311l0.964,10.692c2.754,0.625,6.005,1.067,9.843,1.231
				c23.219,0.992,46.189-6.335,46.189-6.335C451.314,268.78,420.658,266.772,401.241,266.311z"/>
			<path fill="#3C3250" d="M395.725,192.168c1.519-24.991,26.163-43.264,51.13-36.77c4.416,1.149,8.331,2.97,11.581,5.767
				c22.768,19.6,2.437,109.96,2.437,109.96s-41.901,7.179-69.734-2.747C391.139,268.379,393.522,228.397,395.725,192.168z"/>
			<g>
				<g>
					<path fill="#FF8BDB" d="M429.396,165.852L429.396,165.852c5.509,1.063,10.864-2.4,11.962-7.734l2.927-14.223l-19.948-3.849
						l-2.927,14.223C420.311,159.603,423.887,164.789,429.396,165.852z"/>
					<path fill="#FF2C9C" d="M421.267,154.961c8.286,2.291,14.952,0.085,21.338-2.902l1.68-8.164l-19.948-3.849L421.267,154.961z"/>
					<path fill="#FF8BDB" d="M422.484,150.511l5.378,1.038c1.803,0.348,3.662,0.206,5.337-0.406l5.42-1.981
						c7.318-2.676,12.556-8.452,13.992-15.431l4.51-21.915l-39.127-7.55l-5.834,28.352c-0.151,0.736-0.135,1.49,0.05,2.231
						C413.112,138.461,416.318,149.322,422.484,150.511z"/>
					<g>
						<path fill="#1D2D32" d="M434.324,127.535c-0.339,1.88,0.194,3.541,1.191,3.71s2.08-1.219,2.419-3.099
							c0.339-1.88-0.194-3.541-1.191-3.71C435.746,124.267,434.663,125.655,434.324,127.535z"/>
						<path fill="#FFFFFF" d="M436.262,127.193c-0.148,0.719,0.053,1.364,0.45,1.441c0.396,0.076,0.837-0.445,0.985-1.164
							c0.148-0.719-0.053-1.364-0.449-1.441C436.852,125.953,436.41,126.474,436.262,127.193z"/>
					</g>
					<g>
						<path fill="#1D2D32" d="M418.83,124.545c-0.339,1.88,0.194,3.541,1.191,3.71s2.08-1.219,2.42-3.099
							c0.339-1.88-0.194-3.541-1.191-3.71C420.252,121.278,419.169,122.665,418.83,124.545z"/>
						<path fill="#FFFFFF" d="M420.768,124.204c-0.148,0.719,0.053,1.364,0.45,1.441c0.396,0.076,0.838-0.444,0.986-1.164
							c0.148-0.719-0.053-1.364-0.45-1.44C421.357,122.963,420.916,123.485,420.768,124.204z"/>
					</g>
					<path fill="#FF2C9C" d="M423.79,129.925l0.004-0.021c0,0,3.096-1.624,3.425-4.829c0,0,0.897,4.506-3.502,5.208
						c-0.09,0.185-0.16,0.382-0.204,0.592c-0.301,1.462,0.679,2.884,2.19,3.175c0.6,0.116,1.189,0.029,1.705-0.201
						c-0.624,0.803-1.681,1.241-2.767,1.031c-1.51-0.291-2.49-1.713-2.189-3.175C422.614,130.919,423.126,130.3,423.79,129.925z"/>
					<path fill="#FF2C9C" d="M414.2,131.066c-0.264,1.286,0.876,2.59,2.547,2.912c1.671,0.322,3.241-0.459,3.505-1.744
						c0.265-1.286-0.876-2.59-2.547-2.912C416.034,128.999,414.465,129.78,414.2,131.066z"/>
					<path fill="#FF2C9C" d="M434.912,135.062c-0.264,1.286,0.876,2.589,2.547,2.912c1.671,0.323,3.241-0.458,3.505-1.744
						c0.265-1.286-0.876-2.589-2.547-2.912C436.746,132.996,435.176,133.776,434.912,135.062z"/>
					<path fill="#022772" d="M434.953,123.351l7.264,1.401l0.326-1.583l-10.11-3.473l0,0
						C432.087,121.38,433.215,123.016,434.953,123.351z"/>
					<path fill="#022772" d="M416.719,119.833l7.264,1.402l0.326-1.583l-10.109-3.473l0,0
						C413.853,117.861,414.981,119.497,416.719,119.833z"/>
					<path fill="#FFFFFF" d="M422.583,135.594c-0.492,2.393,1.112,4.72,3.583,5.197s4.874-1.077,5.366-3.47L422.583,135.594z"/>
					<path fill="#022772" d="M447.859,142.724l1.904,0.367c3.089,0.596,6.091-1.345,6.707-4.336l6.027-29.289
						c0.825-4.009-1.863-7.907-6.003-8.706l0,0l-3.67,0.746L447.859,142.724z"/>
					<path fill="#FF8BDB" d="M448.241,130.968c-0.732,3.558,1.326,6.955,4.596,7.586c3.271,0.631,6.516-1.742,7.248-5.3
						s-1.326-6.955-4.596-7.586C452.218,125.037,448.973,127.41,448.241,130.968z"/>
					<path fill="#FF2C9C" d="M451.967,131.687c-0.271,1.32,0.492,2.579,1.704,2.813c-0.429-1.822-0.523-3.376,0.983-4.778
						C453.442,129.488,452.239,130.368,451.967,131.687z"/>
				</g>
			</g>
			<path fill="#022772" d="M456.278,100.08c0-2.628-2.2-4.759-4.914-4.759H408.12v7.692c0,5.021,4.242,9.129,9.428,9.129h20.406
				c6.266,0,10.967,5.549,9.742,11.499l-1.014,4.927c-0.488,2.372,1.102,4.677,3.551,5.15l0,0l6.046-21.576L456.278,100.08
				L456.278,100.08z"/>
			<g>
				<path opacity="0.1" enable-background="new    " d="M434.278,164.939c0,0-14.752,9.842-29.895,15.624
					c1.994,6.761,3.263,21.562,13.276,28.771c9.346-2.237,22.308-11.386,30.463-16.488c6.933-4.337,10.801-16.778,8.812-21.468
					C453.43,163.112,438.754,161.87,434.278,164.939z"/>
				<path fill="#FF8BDB" d="M432.187,167.562c0,0-23.504,21.169-49.334,16.755c-12.711-6.537-45.462-20.556-50.137-22.552
					c-1.105-1.898-2.888-4.921-5.431-9.092c-3.124-5.126-3.754-2.311-3.233,0.388c0.253,1.315,1.481,3.105,1.162,3.881
					c-0.398,0.967-8.783-0.166-8.841,1.967c-0.047,1.724,4.452,0.649,3.973,1.551s-3.992,1.311-3.544,2.86
					c0.485,1.68,3.776,0.204,4.163,0.819c0.388,0.616-3.113,1.48-2.21,3.004c0.984,1.659,3.585-0.318,4.323,0.555
					c0.298,0.353-1.622,0.714-0.709,2.258c0.914,1.545,4.19-0.961,4.715-1.327c0.177-0.123,1.02,0.113,2.058,0.22
					c5.822,5.174,37.764,33.126,51.659,36.051c15.32,3.225,49.331-1.254,66.544-14.389
					C464.558,177.376,439.202,162.753,432.187,167.562z"/>
				<path fill="#5A325A" d="M434.278,164.939c0,0-14.657,8.819-29.8,14.601c1.994,6.761,4.271,18.462,14.284,25.671
					c9.346-2.237,21.205-7.263,29.361-12.365c6.933-4.337,14.575-14.065,12.75-22.392
					C457.326,154.266,438.754,161.87,434.278,164.939z"/>
			</g>
			<path fill="#FF8BDB" d="M334.473,132.666c0,0-3.55,4.546-1.26,5.323c2.29,0.776,4.988-2.314,4.988-2.314
				S335.899,130.42,334.473,132.666z"/>
		</g>
		<g>
			<rect x="232.147" y="98.734" fill="#0570DA" width="11.555" height="33.101"/>
			<rect x="232.147" y="98.734" fill="#022772" width="11.555" height="6.184"/>
			<path fill="#89B2F5" d="M256.575,102.929h-37.302c-7.515,0-13.607-5.899-13.607-13.176v-4.22c0-6.614,5.537-11.976,12.367-11.976
				h39.781c6.83,0,12.367,5.362,12.367,11.976v4.22C270.182,97.03,264.09,102.929,256.575,102.929z"/>
			<path fill="#A8A8A8" d="M283.05,90.342h-90.251c-1.668,0-3.02-1.31-3.02-2.925v-2.542c0-1.615,1.352-2.925,3.02-2.925h90.251
				c1.668,0,3.02,1.309,3.02,2.925v2.542C286.07,89.032,284.718,90.342,283.05,90.342z"/>
			<rect x="193.148" y="66.586" fill="#0570DA" width="7.703" height="15.364"/>
			<path fill="#A8A8A8" d="M223.757,67.414h-52.685c-1.69,0-3.06-1.327-3.06-2.963l0,0h58.805l0,0
				C226.817,66.088,225.447,67.414,223.757,67.414z"/>
			<path fill="#022772" d="M199.728,64.451h-5.457v-0.995c0-1.459,1.222-2.642,2.728-2.642l0,0c1.507,0,2.728,1.183,2.728,2.642
				v0.995H199.728z"/>
			<rect x="274.034" y="66.586" fill="#0570DA" width="7.703" height="15.364"/>
			<path fill="#A8A8A8" d="M304.643,67.414h-52.685c-1.69,0-3.06-1.327-3.06-2.963l0,0h58.805l0,0
				C307.703,66.088,306.333,67.414,304.643,67.414z"/>
			<path fill="#022772" d="M280.614,64.451h-5.457v-0.995c0-1.459,1.221-2.642,2.728-2.642l0,0c1.507,0,2.728,1.183,2.728,2.642
				v0.995H280.614z"/>
			<g>
				<path fill="#9DBEF5" d="M196.999,145.285c-1.466,0-2.657-1.151-2.657-2.572v-24.27c0-2.618,0.846-5.117,2.447-7.229
					l13.313-17.576c0.87-1.147,2.532-1.39,3.715-0.553c1.183,0.84,1.438,2.45,0.571,3.595l-13.315,17.577
					c-0.929,1.224-1.417,2.671-1.417,4.186v24.27C199.656,144.134,198.465,145.285,196.999,145.285z"/>
			</g>
			<g>
				<path fill="#9DBEF5" d="M280.554,145.285c-1.468,0-2.657-1.151-2.657-2.572v-24.27c0-1.515-0.488-2.962-1.415-4.185
					L263.165,96.68c-0.867-1.145-0.612-2.755,0.571-3.595c1.183-0.837,2.841-0.594,3.715,0.553l13.315,17.577
					c1.599,2.111,2.445,4.61,2.445,7.228v24.27C283.212,144.134,282.022,145.285,280.554,145.285z"/>
			</g>
			<path fill="#0570DA" d="M249.711,135.584h-23.099c-1.564,0-2.831-1.227-2.831-2.741v-10.68c0-1.514,1.267-2.741,2.831-2.741
				h23.099c1.563,0,2.831,1.227,2.831,2.741v10.68C252.542,134.357,251.274,135.584,249.711,135.584z"/>
			<ellipse fill="#022772" cx="242.431" cy="127.503" rx="6.259" ry="6.061"/>
			<ellipse fill="#E5EBF6" cx="242.431" cy="127.503" rx="1.765" ry="1.709"/>
			<ellipse fill="#FA2D14" cx="230.084" cy="124.618" rx="1.214" ry="1.175"/>
		</g>
		<ellipse fill="#3C3250" cx="330.666" cy="134.007" rx="1.094" ry="1.753"/>
		<ellipse fill="#3C3250" cx="321.438" cy="154.458" rx="1.094" ry="1.753"/>
		<ellipse fill="#3C3250" cx="334.754" cy="140.659" rx="1.094" ry="1.753"/>
	</g>
</g>
<text transform="matrix(1 0 0 1 457.7959 50.8142)"><tspan x="0" y="0" font-family="'MyriadPro-Regular'" font-size="21">Drone with intelligence still </tspan><tspan x="0" y="25.2" font-family="'MyriadPro-Regular'" font-size="21">need people behind it</tspan></text>
<text transform="matrix(1 0 0 1 445.5 47.5)" font-family="'MyriadPro-Regular'" font-size="21">“</text>
<text transform="matrix(1 0 0 1 701.5 76.342)" font-family="'MyriadPro-Regular'" font-size="21">”</text>
</svg>
